<svg version="1.2" baseProfile="tiny-ps" xmlns="http://www.w3.org/2000/svg" viewBox="0 0 533 533" width="533" height="533">
	<title>LKN_INSTAGRAM</title>
	<style>
		tspan { white-space:pre }
		.shp0 { opacity: 0.4;fill: #ffffff } 
		.shp1 { fill: #ffffff } 
	</style>
	<g id="&lt;Group&gt;">
		<path id="&lt;Path&gt;" class="shp0" d="M260.96 517.06C120.87 517.06 6.9 403.1 6.9 263.02C6.9 122.94 120.87 8.98 260.96 8.98C401.04 8.98 515 122.94 515 263.02C515 403.1 401.04 517.06 260.96 517.06Z" />
		<path id="&lt;Compound Path&gt;" fill-rule="evenodd" class="shp1" d="M354.62 428L177.34 428C136.91 428 104 395.09 104 354.62L104 177.37C104 136.91 136.91 104 177.34 104L354.62 104C395.05 104 428 136.91 428 177.37L428 354.62C428 395.09 395.05 428 354.62 428ZM177.34 136.27C154.68 136.27 136.24 154.71 136.24 177.37L136.24 354.62C136.24 377.32 154.68 395.76 177.34 395.76L354.62 395.76C377.28 395.76 395.72 377.32 395.72 354.62L395.72 177.37C395.72 154.71 377.28 136.27 354.62 136.27L177.34 136.27ZM266 350.68C219.83 350.68 182.27 313.12 182.27 266.95C182.27 220.78 219.83 183.22 266 183.22C312.17 183.22 349.73 220.78 349.73 266.95C349.73 313.12 312.17 350.68 266 350.68ZM266 215.46C237.59 215.46 214.5 238.58 214.5 266.95C214.5 295.36 237.59 318.45 266 318.45C294.4 318.45 317.5 295.36 317.5 266.95C317.5 238.58 294.4 215.46 266 215.46ZM374.2 183.9C374.2 195.6 364.66 205.14 352.92 205.14C341.18 205.14 331.68 195.6 331.68 183.9C331.68 172.12 341.18 162.62 352.92 162.62C364.66 162.62 374.2 172.12 374.2 183.9Z" />
	</g>
</svg>