<svg version="1.2" baseProfile="tiny-ps" xmlns="http://www.w3.org/2000/svg" viewBox="0 0 533 533" width="533" height="533">
	<title>LKN_WHATSAPP</title>
	<style>
		tspan { white-space:pre }
		.shp0 { opacity: 0.4;fill: #ffffff } 
		.shp1 { fill: #ffffff } 
	</style>
	<g id="&lt;Group&gt;">
	</g>
	<g id="&lt;Group&gt;">
		<path id="&lt;Path&gt;" class="shp0" d="M265.81 518.6C126.41 518.6 13 405.19 13 265.8C13 126.41 126.41 13 265.81 13C405.22 13 518.64 126.41 518.64 265.8C518.64 405.19 405.22 518.6 265.81 518.6Z" />
		<path id="&lt;Compound Path&gt;" fill-rule="evenodd" class="shp1" d="M441 261.81C441 356.71 364.07 433.62 269.16 433.62C239.05 433.62 210.75 425.85 186.12 412.26L91 442.69L122.02 350.52C106.37 324.63 97.35 294.29 97.35 261.81C97.35 166.9 174.29 90 269.16 90C364.07 90 441 166.9 441 261.81ZM412.21 261.81C412.21 182.93 348.04 118.76 269.16 118.76C190.31 118.76 126.15 182.93 126.15 261.81C126.15 293.1 136.25 322.09 153.38 345.66L135.52 398.77L190.48 381.2C213.07 396.13 240.14 404.82 269.16 404.82C348.04 404.82 412.21 340.65 412.21 261.81ZM357.94 306.3C358.96 308.14 358.64 316.93 354.62 327.03C350.58 337.09 332.31 346.34 324.22 346.77C316.18 347.2 315.92 353.06 271.99 333.84C228.08 314.59 201.65 267.79 199.56 264.8C197.49 261.81 182.55 240.35 183.36 218.76C184.16 197.21 195.91 187.01 200.09 182.76C204.27 178.55 209.04 177.63 212 177.73C214.89 177.86 217.83 178.32 220.38 178.42C222.93 178.49 226.64 177.17 229.97 186.09C233.29 195.01 241.26 216.92 242.26 219.16C243.28 221.4 243.92 224 242.34 226.86C240.78 229.72 239.97 231.53 237.7 234C235.4 236.47 232.86 239.53 230.82 241.44C228.55 243.54 226.15 245.84 228.55 250.33C230.96 254.8 239.21 269.51 251.82 281.62C268.01 297.18 281.98 302.31 286.27 304.68C290.58 307.06 293.15 306.79 295.82 303.96C298.48 301.13 307.27 291.55 310.33 287.27C313.42 282.99 316.35 283.86 320.3 285.43C324.25 287.08 345.44 298.5 349.75 300.84C354.03 303.2 356.93 304.39 357.94 306.3Z" />
	</g>
</svg>